<?xml version="1.0" standalone="no"?>
<!DOCTYPE svg PUBLIC "-//W3C//DTD SVG 20010904//EN"
 "http://www.w3.org/TR/2001/REC-SVG-20010904/DTD/svg10.dtd">
<svg version="1.0" xmlns="http://www.w3.org/2000/svg"
 width="532.000000pt" height="532.000000pt" viewBox="0 0 532.000000 532.000000"
 preserveAspectRatio="xMidYMid meet">
<metadata>
Created by potrace 1.14, written by Peter Selinger 2001-2017
</metadata>
<g transform="translate(0.000000,532.000000) scale(0.100000,-0.100000)"
fill="#000000" stroke="none">
<path d="M1440 3840 l0 -500 980 0 c647 0 980 -3 980 -10 0 -5 18 -10 40 -10
22 0 40 -4 40 -10 0 -5 11 -10 25 -10 14 0 25 -4 25 -10 0 -5 9 -10 20 -10 11
0 20 -4 20 -9 0 -5 11 -12 25 -15 14 -4 25 -11 25 -16 0 -6 7 -10 16 -10 9 0
29 -13 44 -30 15 -16 33 -30 39 -30 6 0 11 -9 11 -20 0 -13 7 -20 20 -20 11 0
20 -6 20 -13 0 -7 9 -19 20 -27 11 -8 20 -21 20 -30 0 -9 9 -22 20 -30 11 -8
23 -29 26 -47 3 -18 10 -33 15 -33 5 0 9 -12 9 -26 0 -14 4 -23 10 -19 6 4 10
-12 10 -39 0 -25 5 -46 10 -46 6 0 10 -50 10 -130 0 -80 -4 -130 -10 -130 -5
0 -10 -16 -10 -35 0 -19 -4 -35 -10 -35 -5 0 -10 -13 -10 -30 0 -16 -4 -30 -9
-30 -5 0 -12 -15 -15 -33 -3 -18 -15 -39 -26 -47 -11 -8 -20 -21 -20 -30 0 -9
-9 -22 -20 -30 -11 -8 -20 -20 -20 -27 0 -7 -9 -13 -20 -13 -13 0 -20 -7 -20
-20 0 -11 -5 -20 -11 -20 -6 0 -24 -13 -39 -30 -15 -16 -35 -30 -44 -30 -9 0
-16 -4 -16 -10 0 -5 -11 -12 -25 -16 -14 -3 -25 -10 -25 -15 0 -5 -9 -9 -20
-9 -11 0 -20 -4 -20 -9 0 -9 -37 -19 -107 -28 -24 -3 -43 -9 -43 -14 0 -5
-402 -9 -970 -9 l-970 0 0 -500 0 -500 970 0 c640 0 970 3 970 10 0 6 35 10
85 10 50 0 85 4 85 10 0 6 16 10 35 10 19 0 35 5 35 10 0 6 14 10 30 10 17 0
30 4 30 9 0 5 29 12 65 16 36 3 65 11 65 16 0 5 11 9 25 9 14 0 25 5 25 10 0
6 9 10 20 10 11 0 20 5 20 10 0 6 9 10 20 10 11 0 20 5 20 10 0 6 9 10 20 10
11 0 20 5 20 10 0 6 7 10 15 10 8 0 15 5 15 10 0 6 9 10 19 10 11 0 26 7 35
15 8 8 18 15 23 15 5 0 15 9 23 20 8 11 21 20 28 20 8 0 27 14 42 30 15 17 33
30 39 30 5 0 21 11 35 25 14 14 30 25 37 25 16 0 69 59 70 79 0 10 2 11 6 4 6
-17 33 9 33 31 0 9 8 16 20 16 11 0 20 7 20 16 0 8 16 30 35 48 19 19 35 40
35 47 0 8 9 21 20 29 11 8 20 22 20 32 0 9 9 20 20 23 11 3 20 15 20 25 0 10
7 25 15 34 8 8 15 22 15 30 0 9 5 16 10 16 6 0 10 6 10 13 0 7 9 19 20 27 11
8 20 22 20 32 0 10 5 18 10 18 6 0 10 9 10 20 0 11 4 20 9 20 5 0 12 20 15 45
4 25 11 45 17 45 5 0 9 11 9 25 0 14 5 25 10 25 6 0 10 9 10 20 0 11 5 20 10
20 6 0 10 20 10 45 0 25 5 45 10 45 6 0 10 14 10 30 0 17 5 30 10 30 6 0 10
28 10 64 0 40 4 66 12 68 17 6 17 470 0 476 -8 2 -12 27 -12 68 0 36 -4 64
-10 64 -5 0 -10 14 -10 30 0 17 -4 30 -10 30 -5 0 -10 21 -10 48 0 34 -3 43
-10 32 -7 -11 -10 -7 -10 18 0 17 -4 32 -10 32 -5 0 -10 11 -10 25 0 14 -4 25
-9 25 -6 0 -13 20 -17 45 -3 25 -10 45 -15 45 -5 0 -9 9 -9 20 0 11 -4 20 -10
20 -5 0 -10 8 -10 18 0 10 -9 24 -20 32 -11 8 -20 20 -20 27 0 7 -4 13 -10 13
-5 0 -10 7 -10 16 0 8 -7 22 -15 30 -8 9 -15 24 -15 34 0 10 -9 22 -20 25 -11
3 -20 14 -20 23 0 10 -9 24 -20 32 -11 8 -20 21 -20 29 0 7 -16 28 -35 47 -19
18 -35 40 -35 48 0 9 -9 16 -20 16 -13 0 -20 7 -20 20 0 13 -7 20 -20 20 -11
0 -20 6 -20 13 0 18 -34 57 -49 57 -7 0 -9 5 -6 10 3 6 -1 10 -10 10 -9 0 -27
11 -41 25 -14 14 -30 25 -35 25 -6 0 -24 14 -39 30 -15 17 -34 30 -42 30 -7 0
-20 9 -28 20 -8 11 -18 20 -23 20 -5 0 -15 7 -23 15 -9 8 -24 15 -35 15 -10 0
-19 5 -19 10 0 6 -7 10 -15 10 -8 0 -15 5 -15 10 0 6 -9 10 -20 10 -11 0 -20
5 -20 10 0 6 -9 10 -20 10 -11 0 -20 5 -20 10 0 6 -9 10 -20 10 -11 0 -20 5
-20 10 0 6 -11 10 -25 10 -14 0 -25 4 -25 9 0 5 -29 13 -65 16 -36 4 -65 11
-65 16 0 5 -13 9 -30 9 -16 0 -30 5 -30 10 0 6 -16 10 -35 10 -19 0 -35 5 -35
10 0 6 -35 10 -85 10 -50 0 -85 4 -85 10 0 7 -330 10 -970 10 l-970 0 0 -500z"/>
</g>
</svg>
